<svg width="110" height="32" viewBox="0 0 110 32" fill="none" xmlns="http://www.w3.org/2000/svg">
<rect width="110" height="32" rx="8" fill="#252A3C"/>
<path d="M17.8521 10.1625C17.02 10.1625 16.5519 9.20537 17.0628 8.54851L19.0332 6.01506C19.4336 5.50032 20.2116 5.50032 20.6119 6.01506L22.5824 8.54851C23.0933 9.20537 22.6252 10.1625 21.793 10.1625H19.8226H17.8521Z" fill="white"/>
<path d="M13 12V23C13 23.5523 13.4477 24 14 24H26C26.5523 24 27 23.5523 27 23V12" stroke="white" stroke-width="1.5" stroke-linecap="round" stroke-linejoin="round"/>
<path d="M20 9.5V16.5" stroke="white" stroke-width="1.5" stroke-linecap="round"/>
<path d="M48.646 12.558V15.414H52.006V16.716H48.646V19.698H52.426V21H47.05V11.256H52.426V12.558H48.646ZM57.6958 17.094L60.1878 21H58.3818L56.7158 18.382L55.1478 21H53.4818L55.9738 17.206L53.4818 13.286H55.2878L56.9538 15.904L58.5218 13.286H60.1878L57.6958 17.094ZM62.9741 14.42C63.2448 14.0653 63.6135 13.7667 64.0801 13.524C64.5468 13.2813 65.0741 13.16 65.6621 13.16C66.3341 13.16 66.9455 13.328 67.4961 13.664C68.0561 13.9907 68.4948 14.4527 68.8121 15.05C69.1295 15.6473 69.2881 16.3333 69.2881 17.108C69.2881 17.8827 69.1295 18.578 68.8121 19.194C68.4948 19.8007 68.0561 20.2767 67.4961 20.622C66.9455 20.958 66.3341 21.126 65.6621 21.126C65.0741 21.126 64.5515 21.0093 64.0941 20.776C63.6368 20.5333 63.2635 20.2347 62.9741 19.88V24.668H61.3781V13.286H62.9741V14.42ZM67.6641 17.108C67.6641 16.576 67.5521 16.1187 67.3281 15.736C67.1135 15.344 66.8241 15.05 66.4601 14.854C66.1055 14.6487 65.7228 14.546 65.3121 14.546C64.9108 14.546 64.5281 14.6487 64.1641 14.854C63.8095 15.0593 63.5201 15.358 63.2961 15.75C63.0815 16.142 62.9741 16.604 62.9741 17.136C62.9741 17.668 63.0815 18.1347 63.2961 18.536C63.5201 18.928 63.8095 19.2267 64.1641 19.432C64.5281 19.6373 64.9108 19.74 65.3121 19.74C65.7228 19.74 66.1055 19.6373 66.4601 19.432C66.8241 19.2173 67.1135 18.9093 67.3281 18.508C67.5521 18.1067 67.6641 17.64 67.6641 17.108ZM74.2124 21.126C73.4844 21.126 72.8264 20.9627 72.2384 20.636C71.6504 20.3 71.1884 19.8333 70.8524 19.236C70.5164 18.6293 70.3484 17.9293 70.3484 17.136C70.3484 16.352 70.5211 15.6567 70.8664 15.05C71.2117 14.4433 71.6831 13.9767 72.2804 13.65C72.8777 13.3233 73.5451 13.16 74.2824 13.16C75.0197 13.16 75.6871 13.3233 76.2844 13.65C76.8817 13.9767 77.3531 14.4433 77.6984 15.05C78.0437 15.6567 78.2164 16.352 78.2164 17.136C78.2164 17.92 78.0391 18.6153 77.6844 19.222C77.3297 19.8287 76.8444 20.3 76.2284 20.636C75.6217 20.9627 74.9497 21.126 74.2124 21.126ZM74.2124 19.74C74.6231 19.74 75.0057 19.642 75.3604 19.446C75.7244 19.25 76.0184 18.956 76.2424 18.564C76.4664 18.172 76.5784 17.696 76.5784 17.136C76.5784 16.576 76.4711 16.1047 76.2564 15.722C76.0417 15.33 75.7571 15.036 75.4024 14.84C75.0477 14.644 74.6651 14.546 74.2544 14.546C73.8437 14.546 73.4611 14.644 73.1064 14.84C72.7611 15.036 72.4857 15.33 72.2804 15.722C72.0751 16.1047 71.9724 16.576 71.9724 17.136C71.9724 17.9667 72.1824 18.6107 72.6024 19.068C73.0317 19.516 73.5684 19.74 74.2124 19.74ZM81.3901 14.406C81.6235 14.014 81.9315 13.7107 82.3141 13.496C82.7061 13.272 83.1681 13.16 83.7001 13.16V14.812H83.2941C82.6688 14.812 82.1928 14.9707 81.8661 15.288C81.5488 15.6053 81.3901 16.156 81.3901 16.94V21H79.7941V13.286H81.3901V14.406ZM87.0292 14.588V18.858C87.0292 19.1473 87.0945 19.3573 87.2252 19.488C87.3652 19.6093 87.5985 19.67 87.9252 19.67H88.9052V21H87.6452C86.9265 21 86.3759 20.832 85.9932 20.496C85.6105 20.16 85.4192 19.614 85.4192 18.858V14.588H84.5092V13.286H85.4192V11.368H87.0292V13.286H88.9052V14.588H87.0292Z" fill="white"/>
</svg>
